<svg xmlns="http://www.w3.org/2000/svg" xmlns:xlink="http://www.w3.org/1999/xlink" width="618.672" height="546.167" viewBox="0 0 618.672 546.167"><defs><linearGradient id="a" x1="46.645" y1=".5" x2="47.644" y2=".5" gradientUnits="objectBoundingBox"><stop offset="0" stop-color="#fff"/><stop offset="1" stop-color="#222221"/></linearGradient><linearGradient id="c" x1=".484" y1=".59" x2="1.158" y2=".355" gradientUnits="objectBoundingBox"><stop offset="0" stop-color="#222221"/><stop offset="1" stop-color="#fff"/></linearGradient><linearGradient id="e" x1="0" y1=".5" x2="1" y2=".5" xlink:href="#a"/><clipPath id="b"><path data-name="Прямоугольник 7" d="M0 0h313.339v533.998H0z"/></clipPath><clipPath id="d"><path data-name="Прямоугольник 20" d="M0 0h437.25v533.998H0z"/></clipPath></defs><g data-name="Сгруппировать 4956" opacity=".06"><g data-name="Сгруппировать 1" transform="rotate(103 230.583 330.76)" clip-path="url(#b)"><path data-name="Контур 27" d="M183.773 346.802c17.754 0 32.147 36.91 32.147 82.442s-14.393 82.441-32.147 82.441-32.146-36.91-32.146-82.441 14.392-82.442 32.146-82.442z" fill="#f2f2f2"/></g><g data-name="Сгруппировать 2" transform="rotate(103 230.583 330.76)" clip-path="url(#b)"><ellipse data-name="Эллипс 2" cx="19.048" cy="48.864" rx="19.048" ry="48.864" transform="translate(239.613 30.654)" fill="#f2f2f2"/></g><g data-name="Сгруппировать 3" transform="rotate(103 230.583 330.76)" clip-path="url(#b)"><path data-name="Контур 1" d="M0 196.925h10.02V0H0z" transform="translate(295.008 -.721)" opacity=".3" fill="url(#a)"/></g><g data-name="Сгруппировать 4" transform="rotate(103 230.583 330.76)" clip-path="url(#b)"><path data-name="Контур 2" d="M99.44 0c.47 17.69.626 57.542-.287 75.232-.861 16.488-2.714 32.71-6.08 47-3.705 15.754-9.054 28.371-15.108 38.05-6.965 11.076-14.716 19.888-22.7 24.761-7.1 4.339-14.482 5.34-21.709 2.87-7.306-2.537-14.351-8.611-20.927-16.956A145.52 145.52 0 010 151.466c.391 1.8.809 3.6 1.252 5.34a219.933 219.933 0 005.948 20.16 148.577 148.577 0 007.228 17.156c5.192 10.347 11.063 18.424 17.3 23.564 6.236 5.207 12.864 7.677 19.439 7.143 6.575-.6 13.125-4.139 19.178-10.347 6.08-6.275 11.82-15.153 16.726-26.435A205.92 205.92 0 0099.257 148.6c3.131-14.819 5.74-30.84 6.236-47.663C106.563 65.286 103.2.467 103.2.467z" transform="translate(194.211 268.366)" opacity=".12" fill="url(#c)"/></g><g data-name="Сгруппировать 15" transform="rotate(103 261.56 306.119)" clip-path="url(#d)"><path data-name="Контур 18" d="M394.692 197.072v-469.083h-77.7v468.615h-66.49l-3 .067-3.071.067-1.535.067-1.6.067a144.174 144.174 0 00-24.977 3.537 153.006 153.006 0 00-24.032 7.81c-1.936.868-3.872 1.669-5.741 2.6l-5.607 2.87-5.474 3.137c-1.8 1.068-3.6 2.2-5.34 3.338a147.706 147.706 0 00-36.706 34.25 150.9 150.9 0 00-13.418 21.361 145.231 145.231 0 00-14.886 48.13 144.337 144.337 0 002.27 50.2 146.846 146.846 0 007.543 24.165 149.02 149.02 0 0011.678 22.429 145.816 145.816 0 0078.236 60.613 145.125 145.125 0 00141.453-30.307 147.623 147.623 0 0031.04-39.516 144.417 144.417 0 0015.821-47.863c.267-2.069.6-4.206.8-6.275l.534-6.275.2-6.408v-69.694h41.721v-77.9h-41.719zm-77.7 123.762v22.83c-.067.935-.067 1.869-.067 2.87-.067 1-.2 1.936-.267 2.937s-.267 1.936-.4 2.937a74.541 74.541 0 01-2.67 11.415c-.334.935-.6 1.869-1 2.737-.4.935-.734 1.8-1.068 2.737-.4.868-.8 1.8-1.2 2.67s-.935 1.736-1.335 2.6a69.087 69.087 0 01-14.486 18.424 71.306 71.306 0 01-19.826 12.416 65.11 65.11 0 01-11.148 3.4 74.662 74.662 0 01-11.615 1.469 66.9 66.9 0 01-43.791-14.018 68.48 68.48 0 01-15.76-17.347 64.278 64.278 0 01-5.407-10.414 65.345 65.345 0 01-3.471-11.148 61.506 61.506 0 01-1.535-11.682 69.736 69.736 0 01.534-11.815 66.659 66.659 0 016.876-22.3 72.907 72.907 0 016.208-9.947 68.363 68.363 0 0117.155-16.016c.868-.534 1.669-1.068 2.47-1.535.868-.467 1.736-.935 2.537-1.469.868-.4 1.736-.868 2.6-1.335.868-.4 1.8-.8 2.67-1.2a65.087 65.087 0 0111.081-3.6 67.653 67.653 0 0111.615-1.669l.734-.067h70.693v46.127z" fill="#fff"/><g data-name="Сгруппировать 14"><g data-name="Сгруппировать 12"><path data-name="Контур 19" d="M394.692-272.011h-77.769v615.675c-.067.935-.067 1.869-.067 2.87-.067 1-.2 1.936-.267 2.937s-.267 1.936-.4 2.937a74.566 74.566 0 01-2.67 11.415c-.334.935-.6 1.869-1 2.737-.4.935-.734 1.8-1.068 2.737-.4.868-.8 1.8-1.2 2.67s-.935 1.736-1.335 2.6a69.09 69.09 0 01-14.486 18.424 71.308 71.308 0 01-19.826 12.416 65.11 65.11 0 01-11.148 3.4 74.662 74.662 0 01-11.615 1.469 66.9 66.9 0 01-43.791-14.018 68.481 68.481 0 01-15.754-17.356 64.278 64.278 0 01-5.41-10.405 65.341 65.341 0 01-3.471-11.148 61.505 61.505 0 01-1.535-11.682 69.736 69.736 0 01.534-11.815 66.655 66.655 0 016.876-22.3 72.892 72.892 0 016.208-9.947 68.359 68.359 0 0117.155-16.016c.868-.534 1.669-1.068 2.47-1.535.868-.467 1.736-.935 2.537-1.469.868-.4 1.736-.868 2.6-1.335.868-.4 1.8-.8 2.67-1.2a65.093 65.093 0 0111.081-3.6 67.65 67.65 0 0111.615-1.669l.734-.067h71.094v-78.1h-66.885l-3 .067-3.071.067-1.535.067-1.6.067a144.174 144.174 0 00-24.977 3.527 153.006 153.006 0 00-24.032 7.81c-1.936.868-3.872 1.669-5.741 2.6l-5.607 2.87-5.474 3.137c-1.8 1.068-3.6 2.2-5.34 3.338a147.7 147.7 0 00-36.706 34.25 150.911 150.911 0 00-13.418 21.361 145.233 145.233 0 00-14.886 48.13 144.339 144.339 0 002.27 50.2 146.851 146.851 0 007.543 24.165 149.016 149.016 0 0011.678 22.429 145.816 145.816 0 0078.236 60.613 145.125 145.125 0 00141.452-30.307 147.621 147.621 0 0031.041-39.516 144.418 144.418 0 0015.821-47.863c.267-2.069.6-4.206.8-6.275l.534-6.275.2-6.408v-23.567z" fill="none"/><path data-name="Контур 20" d="M388.083-272.011h6.609v616.677l-.2 6.409-.534 6.275c-.2 2.069-.534 4.205-.8 6.275a144.422 144.422 0 01-15.823 47.864 148.675 148.675 0 01-31.041 39.518 147.1 147.1 0 01-42.589 26.635 144.873 144.873 0 01-49.131 10.48 144.223 144.223 0 01-94.19-30.306 144.678 144.678 0 01-53-83.71 144.341 144.341 0 01-2.27-50.2A145.235 145.235 0 01120 275.776a147.209 147.209 0 0113.419-21.362 147.7 147.7 0 0136.711-34.245c1.8-1.135 3.538-2.27 5.34-3.338l5.474-3.137 5.607-2.871c1.869-.935 3.8-1.736 5.741-2.6a144.315 144.315 0 0124.032-7.81 137.178 137.178 0 0124.966-3.538l1.6-.067 1.535-.067 3.071-.067 3-.067h66.888v6.609h-66.882l-2.87.067-2.937.067-1.469.067-1.469.067a131.448 131.448 0 00-23.831 3.4 139.036 139.036 0 00-22.9 7.476c-1.8.8-3.672 1.6-5.474 2.47l-5.407 2.737-5.274 2.937c-1.736 1-3.4 2.136-5.14 3.2a140.87 140.87 0 00-35.112 32.648 139.287 139.287 0 00-27.033 66.354 137.851 137.851 0 002.2 47.93 137.574 137.574 0 007.209 23.03 135.29 135.29 0 0011.148 21.361 139.06 139.06 0 0074.7 57.876 141.71 141.71 0 0047.462 6.542 137.1 137.1 0 0046.928-10.013 139.917 139.917 0 0040.656-25.433 141.434 141.434 0 0029.639-37.716 138.321 138.321 0 0015.086-45.66c.267-2 .6-4.005.734-6.008l.467-6.008c.067-2 .134-4.072.2-6.141v-23.431z"/><path data-name="Контур 21" d="M373.864-272.011h6.609v616.476l-.2 5.741-.467 5.674c-.2 1.869-.467 3.8-.734 5.674a131.219 131.219 0 01-14.219 43.123 131.324 131.324 0 01-66.418 59.679 129.767 129.767 0 01-44.325 9.412 130.4 130.4 0 01-84.978-27.3 130.652 130.652 0 01-47.863-75.5 129.033 129.033 0 01-3-22.563 135.669 135.669 0 01.935-22.7 130.238 130.238 0 0113.418-43.39 137.371 137.371 0 0112.083-19.292 131.8 131.8 0 0133.11-30.907c1.6-1 3.2-2.069 4.806-3l4.94-2.8 5.073-2.537c1.736-.8 3.471-1.535 5.207-2.336a130.036 130.036 0 0121.628-7.076 128.641 128.641 0 0122.5-3.2l1.4-.067h1.4l2.8-.067 2.737-.067h67.021v6.609h-66.959l-2.6.067-2.67.067h-1.335l-1.335.067a115.239 115.239 0 00-21.361 3.071 131.951 131.951 0 00-20.56 6.675 397.575 397.575 0 00-4.94 2.2l-4.806 2.4-4.74 2.67c-1.535.935-3.071 1.936-4.606 2.87a130.976 130.976 0 00-17.022 13.284 124.757 124.757 0 00-38.722 75.562 129.216 129.216 0 00-.868 21.562 121.611 121.611 0 002.87 21.428 125.968 125.968 0 006.476 20.691 127.406 127.406 0 0010.013 19.158 124.758 124.758 0 0067.021 51.942 128.117 128.117 0 0042.589 5.874 123.209 123.209 0 0042.055-8.945 125.017 125.017 0 0076.634-97.662c.2-1.8.534-3.6.668-5.34l.467-5.407.2-5.474v-616.346z"/><path data-name="Контур 22" d="M359.648-272.011h6.609v616.276l-.2 5.14-.4 5.073c-.134 1.669-.4 3.338-.668 5.073a117.038 117.038 0 01-37.649 70.225 119.305 119.305 0 01-34.245 21.428 116.664 116.664 0 01-39.519 8.411 119.439 119.439 0 01-39.986-5.474 117.1 117.1 0 01-62.883-48.8 121.664 121.664 0 01-9.412-18.024 115.039 115.039 0 01-6.075-19.425 113.454 113.454 0 01-2.672-20.156 121.509 121.509 0 01.868-20.293 116.919 116.919 0 0136.381-70.893 115.317 115.317 0 0115.951-12.483c1.4-.868 2.87-1.8 4.339-2.67l4.406-2.47 4.539-2.27c1.535-.734 3.071-1.4 4.606-2.069a114.258 114.258 0 0119.292-6.275 112.993 112.993 0 0120.093-2.87l1.268-.067h1.268l2.537-.067 2.47-.067h66.955v6.609h-67.019l-2.4.067-2.4.067h-1.2l-1.2.067a114.727 114.727 0 00-18.958 2.67 115.46 115.46 0 00-18.157 5.941c-1.469.668-2.937 1.268-4.339 1.936l-4.272 2.136-4.139 2.336c-1.4.8-2.737 1.669-4.072 2.537a112.008 112.008 0 00-15.086 11.815 108.184 108.184 0 00-12.831 14.219 104.742 104.742 0 00-10.147 16.221 109.244 109.244 0 00-11.277 36.448 114.757 114.757 0 00-.8 19.159 107.685 107.685 0 002.537 19.025 109.68 109.68 0 005.739 18.294 107.809 107.809 0 008.878 16.956 110.075 110.075 0 0097.128 51.267 109.661 109.661 0 0069.558-28.17 112.806 112.806 0 0023.564-29.973 108.832 108.832 0 0011.949-36.248c.2-1.6.467-3.138.6-4.74l.4-4.806.133-4.806c.067-.8 0-1.6 0-2.336v-613.944z"/><path data-name="Контур 23" d="M345.427-272.011h6.609v616.076l-.133 4.473-.4 4.472c-.133 1.469-.4 2.937-.534 4.406a101.835 101.835 0 01-11.148 33.711 104.961 104.961 0 01-21.962 27.97 102.734 102.734 0 01-99.931 21.428 102.63 102.63 0 01-55.274-42.856 108.01 108.01 0 01-8.278-15.821 102.665 102.665 0 01-5.34-17.022 103.559 103.559 0 01-1.6-35.513 102.272 102.272 0 0110.48-33.911 104.028 104.028 0 019.482-15.087 105.1 105.1 0 0125.967-24.232c1.268-.8 2.47-1.6 3.805-2.336l3.872-2.2 4.005-2c1.335-.668 2.737-1.2 4.072-1.8a108.615 108.615 0 0116.889-5.541 104.8 104.8 0 0117.623-2.537l1.135-.067h1.132l2.2-.067 2.27-.067h67.021v6.609h-67.091l-2.136.067-2.136.067h-1.064l-1.068.067a91.69 91.69 0 00-16.488 2.336 101.754 101.754 0 00-15.821 5.14c-1.268.6-2.537 1.135-3.805 1.736l-3.738 1.869-3.471 2c-1.2.734-2.336 1.469-3.538 2.2a98.084 98.084 0 00-13.151 10.28 103.462 103.462 0 00-11.215 12.35 100.552 100.552 0 00-8.878 14.152 94.627 94.627 0 00-9.813 31.775 107.45 107.45 0 00-.734 16.689 98.682 98.682 0 002.2 16.555 95.385 95.385 0 005.007 15.887 97.8 97.8 0 007.749 14.817 96.173 96.173 0 0051.735 40.053 98.131 98.131 0 0032.91 4.539 95.282 95.282 0 0060.613-24.5 99.066 99.066 0 0020.556-26.167 96.106 96.106 0 0010.414-31.575c.2-1.4.4-2.737.534-4.139l.334-4.139.134-4.139v-616.008z"/><path data-name="Контур 24" d="M331.208-272.011h6.609v615.942l-.133 3.8-.334 3.872c-.133 1.268-.334 2.537-.467 3.8a87.58 87.58 0 01-9.613 29.038 88.543 88.543 0 01-44.859 40.32 88.094 88.094 0 01-29.839 6.342 87.733 87.733 0 01-57.342-18.414 90 90 0 01-20.627-22.63 87.827 87.827 0 01-7.076-13.618 92.909 92.909 0 01-4.606-14.619 83.394 83.394 0 01-2-15.22 91.754 91.754 0 01.668-15.42 88.118 88.118 0 019.012-29.238 90.455 90.455 0 018.143-13.018 91.017 91.017 0 0122.43-20.894c1.068-.668 2.136-1.4 3.271-2l3.338-1.869 3.4-1.736c1.135-.534 2.336-1.068 3.471-1.6a88.164 88.164 0 0114.552-4.739 83.679 83.679 0 0115.153-2.136l.935-.067h2.937l2-.067h67.093v6.609h-67.155l-1.869.067h-2.737l-.868.067a76.293 76.293 0 00-14.018 2 81.6 81.6 0 00-13.484 4.406c-1.068.467-2.2.935-3.2 1.469l-3.2 1.6-3.071 1.736c-1 .6-2 1.268-3 1.869a88.707 88.707 0 00-11.215 8.745 79.648 79.648 0 00-9.563 10.545 77.87 77.87 0 00-7.543 12.083 79.659 79.659 0 00-8.34 27.035 84.993 84.993 0 00-.6 14.285 83.069 83.069 0 001.869 14.085 88.374 88.374 0 004.206 13.551 75.684 75.684 0 006.608 12.619 80.511 80.511 0 0019.092 20.961 83.915 83.915 0 0024.966 13.217 82.517 82.517 0 0055.673-2.07 83.574 83.574 0 0024.032-15.02 82.286 82.286 0 0026.368-49.131c.134-1.2.334-2.336.467-3.538l.334-3.538.134-3.471v-616.01z"/><path data-name="Контур 25" d="M316.99-272.011h6.609v615.742l-.133 3.137c-.133 1.068-.2 2.136-.267 3.2s-.267 2.136-.4 3.2a75.278 75.278 0 01-8.011 24.365 74.675 74.675 0 01-37.651 33.856 70.586 70.586 0 01-12.283 3.738 82.207 82.207 0 01-12.75 1.6 75.859 75.859 0 01-25.433-3.471 76.685 76.685 0 01-22.63-11.949 74.552 74.552 0 01-17.289-19.025 68.681 68.681 0 01-5.941-11.415 72.592 72.592 0 01-3.805-12.278 74.925 74.925 0 01-1.736-12.822 83.74 83.74 0 01.534-12.95 73.6 73.6 0 017.543-24.5 80.84 80.84 0 016.809-10.948 78.321 78.321 0 018.678-9.546 72.878 72.878 0 0110.147-7.944c.935-.534 1.8-1.2 2.737-1.736l2.8-1.6c.935-.467 1.936-.935 2.87-1.469.935-.467 1.936-.868 2.937-1.335a76.918 76.918 0 0112.216-4.005 67.455 67.455 0 0112.75-1.8l.8-.067h2.537l1.736-.067h67.158v6.609H246.43l-.734.067a61.686 61.686 0 00-11.615 1.669 65.093 65.093 0 00-11.081 3.6c-.868.4-1.8.8-2.67 1.2-.868.467-1.736.868-2.6 1.335s-1.669 1-2.537 1.469-1.671 1.071-2.471 1.54a69.572 69.572 0 00-9.279 7.276 65.229 65.229 0 00-7.877 8.745 67.966 67.966 0 00-13.086 32.241 67.22 67.22 0 001 23.5 71.894 71.894 0 003.471 11.148 76.986 76.986 0 005.407 10.414 67.46 67.46 0 0036.381 28.237 67.619 67.619 0 0034.783 1.666 65.1 65.1 0 0011.148-3.4 68.347 68.347 0 0019.826-12.416 70.453 70.453 0 0014.486-18.424c.4-.868.935-1.736 1.335-2.6s.8-1.8 1.2-2.67c.334-.935.734-1.8 1.068-2.737s.6-1.869 1-2.737a67.436 67.436 0 002.67-11.415c.134-1 .267-1.936.4-2.937.067-1 .134-1.936.267-2.937 0-.935.067-1.869.067-2.871v-615.483z"/></g><g data-name="Сгруппировать 13"><path data-name="Прямоугольник 13" fill="none" d="M394.491 197.072h41.922v77.969h-41.922z"/><path data-name="Прямоугольник 14" d="M394.491 197.072h41.922v6.609h-41.922z"/><path data-name="Прямоугольник 15" d="M394.491 211.291h41.922v6.609h-41.922z"/><path data-name="Прямоугольник 16" d="M394.491 225.576h41.922v6.609h-41.922z"/><path data-name="Прямоугольник 17" d="M394.491 239.862h41.922v6.609h-41.922z"/><path data-name="Прямоугольник 18" d="M394.491 254.08h41.922v6.609h-41.922z"/><path data-name="Прямоугольник 19" d="M394.491 268.366h41.922v6.609h-41.922z"/></g></g></g><g data-name="Сгруппировать 17" transform="rotate(103 230.583 330.76)" clip-path="url(#b)"><path data-name="Прямоугольник 23" transform="translate(248.041 203.214)" opacity=".25" fill="url(#e)" d="M0 0h18.448v71.294H0z"/></g></g></svg>