<svg xmlns="http://www.w3.org/2000/svg" width="136.338" height="137.938" viewBox="0 0 136.338 137.938"><path data-name="Icon awesome-binoculars" d="M15 71.226a3.244 3.244 0 00-.4 4.572l8.342 9.942a3.244 3.244 0 004.572.4l7.456-6.256-12.514-14.915zm63.292 40.098c14.908-11.843 25.628-5.497 46.24-21.878l6.835-5.735a6.49 6.49 0 00.8-9.142l-12.515-14.915a6.49 6.49 0 00-9.142-.8L85.654 79.712l-4.17-4.97-24.857 20.857 12.534 14.937a6.552 6.552 0 009.132.79zM28.212 51.64a6.552 6.552 0 00-.809 9.13l12.534 14.937L64.794 54.85l-4.171-4.971 24.856-20.857a6.49 6.49 0 00.8-9.142L73.767 4.971a6.49 6.49 0 00-9.141-.8L57.79 9.907C38.08 27.36 42.467 39.02 28.214 51.643zM43.8 110.596l8.342 9.943a3.244 3.244 0 004.572.4l7.457-6.257-12.515-14.914-7.456 6.257a3.244 3.244 0 00-.4 4.571zM77.312 69.77l-8.343-9.943-24.857 20.857 8.343 9.943z" fill="#fff"/></svg>