<svg xmlns="http://www.w3.org/2000/svg" width="217" height="117" viewBox="0 0 217 117"><defs><clipPath id="a"><path fill="none" d="M0 0h217v117H0z"/></clipPath></defs><g data-name="Повторяющаяся сетка 56" opacity=".32" clip-path="url(#a)" fill="#bdbdbd"><circle data-name="Эллипс 959" cx="3.5" cy="3.5" r="3.5"/><circle data-name="Эллипс 959" cx="3.5" cy="3.5" r="3.5" transform="translate(21)"/><circle data-name="Эллипс 959" cx="3.5" cy="3.5" r="3.5" transform="translate(42)"/><circle data-name="Эллипс 959" cx="3.5" cy="3.5" r="3.5" transform="translate(63)"/><circle data-name="Эллипс 959" cx="3.5" cy="3.5" r="3.5" transform="translate(84)"/><circle data-name="Эллипс 959" cx="3.5" cy="3.5" r="3.5" transform="translate(105)"/><circle data-name="Эллипс 959" cx="3.5" cy="3.5" r="3.5" transform="translate(126)"/><circle data-name="Эллипс 959" cx="3.5" cy="3.5" r="3.5" transform="translate(147)"/><circle data-name="Эллипс 959" cx="3.5" cy="3.5" r="3.5" transform="translate(168)"/><circle data-name="Эллипс 959" cx="3.5" cy="3.5" r="3.5" transform="translate(189)"/><circle data-name="Эллипс 959" cx="3.5" cy="3.5" r="3.5" transform="translate(210)"/><circle data-name="Эллипс 959" cx="3.5" cy="3.5" r="3.5" transform="translate(0 21)"/><circle data-name="Эллипс 959" cx="3.5" cy="3.5" r="3.5" transform="translate(21 21)"/><circle data-name="Эллипс 959" cx="3.5" cy="3.5" r="3.5" transform="translate(42 21)"/><circle data-name="Эллипс 959" cx="3.5" cy="3.5" r="3.5" transform="translate(63 21)"/><circle data-name="Эллипс 959" cx="3.5" cy="3.5" r="3.5" transform="translate(84 21)"/><circle data-name="Эллипс 959" cx="3.5" cy="3.5" r="3.5" transform="translate(105 21)"/><circle data-name="Эллипс 959" cx="3.5" cy="3.5" r="3.5" transform="translate(126 21)"/><circle data-name="Эллипс 959" cx="3.5" cy="3.5" r="3.5" transform="translate(147 21)"/><circle data-name="Эллипс 959" cx="3.5" cy="3.5" r="3.5" transform="translate(168 21)"/><circle data-name="Эллипс 959" cx="3.5" cy="3.5" r="3.5" transform="translate(189 21)"/><circle data-name="Эллипс 959" cx="3.5" cy="3.5" r="3.5" transform="translate(210 21)"/><circle data-name="Эллипс 959" cx="3.5" cy="3.5" r="3.5" transform="translate(0 42)"/><circle data-name="Эллипс 959" cx="3.5" cy="3.5" r="3.5" transform="translate(21 42)"/><circle data-name="Эллипс 959" cx="3.5" cy="3.5" r="3.5" transform="translate(42 42)"/><circle data-name="Эллипс 959" cx="3.5" cy="3.5" r="3.5" transform="translate(63 42)"/><circle data-name="Эллипс 959" cx="3.5" cy="3.5" r="3.5" transform="translate(84 42)"/><circle data-name="Эллипс 959" cx="3.5" cy="3.5" r="3.5" transform="translate(105 42)"/><circle data-name="Эллипс 959" cx="3.5" cy="3.5" r="3.5" transform="translate(126 42)"/><circle data-name="Эллипс 959" cx="3.5" cy="3.5" r="3.5" transform="translate(147 42)"/><circle data-name="Эллипс 959" cx="3.5" cy="3.5" r="3.5" transform="translate(168 42)"/><circle data-name="Эллипс 959" cx="3.5" cy="3.5" r="3.5" transform="translate(189 42)"/><circle data-name="Эллипс 959" cx="3.5" cy="3.5" r="3.5" transform="translate(210 42)"/><circle data-name="Эллипс 959" cx="3.5" cy="3.5" r="3.5" transform="translate(0 63)"/><circle data-name="Эллипс 959" cx="3.5" cy="3.5" r="3.5" transform="translate(21 63)"/><circle data-name="Эллипс 959" cx="3.5" cy="3.5" r="3.5" transform="translate(42 63)"/><circle data-name="Эллипс 959" cx="3.5" cy="3.5" r="3.5" transform="translate(63 63)"/><circle data-name="Эллипс 959" cx="3.5" cy="3.5" r="3.5" transform="translate(84 63)"/><circle data-name="Эллипс 959" cx="3.5" cy="3.5" r="3.5" transform="translate(105 63)"/><circle data-name="Эллипс 959" cx="3.5" cy="3.5" r="3.5" transform="translate(126 63)"/><circle data-name="Эллипс 959" cx="3.5" cy="3.5" r="3.5" transform="translate(147 63)"/><circle data-name="Эллипс 959" cx="3.5" cy="3.5" r="3.5" transform="translate(168 63)"/><circle data-name="Эллипс 959" cx="3.5" cy="3.5" r="3.5" transform="translate(189 63)"/><circle data-name="Эллипс 959" cx="3.5" cy="3.5" r="3.5" transform="translate(210 63)"/><circle data-name="Эллипс 959" cx="3.5" cy="3.5" r="3.5" transform="translate(0 84)"/><circle data-name="Эллипс 959" cx="3.5" cy="3.5" r="3.5" transform="translate(21 84)"/><circle data-name="Эллипс 959" cx="3.5" cy="3.5" r="3.5" transform="translate(42 84)"/><circle data-name="Эллипс 959" cx="3.5" cy="3.5" r="3.5" transform="translate(63 84)"/><circle data-name="Эллипс 959" cx="3.5" cy="3.5" r="3.5" transform="translate(84 84)"/><circle data-name="Эллипс 959" cx="3.5" cy="3.5" r="3.5" transform="translate(105 84)"/><circle data-name="Эллипс 959" cx="3.5" cy="3.5" r="3.5" transform="translate(126 84)"/><circle data-name="Эллипс 959" cx="3.5" cy="3.5" r="3.5" transform="translate(147 84)"/><circle data-name="Эллипс 959" cx="3.5" cy="3.5" r="3.5" transform="translate(168 84)"/><circle data-name="Эллипс 959" cx="3.5" cy="3.5" r="3.5" transform="translate(189 84)"/><circle data-name="Эллипс 959" cx="3.5" cy="3.5" r="3.5" transform="translate(210 84)"/><circle data-name="Эллипс 959" cx="3.5" cy="3.5" r="3.5" transform="translate(0 105)"/><circle data-name="Эллипс 959" cx="3.5" cy="3.5" r="3.5" transform="translate(21 105)"/><circle data-name="Эллипс 959" cx="3.5" cy="3.5" r="3.5" transform="translate(42 105)"/><circle data-name="Эллипс 959" cx="3.5" cy="3.5" r="3.5" transform="translate(63 105)"/><circle data-name="Эллипс 959" cx="3.5" cy="3.5" r="3.5" transform="translate(84 105)"/><circle data-name="Эллипс 959" cx="3.5" cy="3.5" r="3.5" transform="translate(105 105)"/><circle data-name="Эллипс 959" cx="3.5" cy="3.5" r="3.5" transform="translate(126 105)"/><circle data-name="Эллипс 959" cx="3.5" cy="3.5" r="3.5" transform="translate(147 105)"/><circle data-name="Эллипс 959" cx="3.5" cy="3.5" r="3.5" transform="translate(168 105)"/><circle data-name="Эллипс 959" cx="3.5" cy="3.5" r="3.5" transform="translate(189 105)"/><circle data-name="Эллипс 959" cx="3.5" cy="3.5" r="3.5" transform="translate(210 105)"/></g></svg>