<svg xmlns="http://www.w3.org/2000/svg" width="104.625" height="104.62" viewBox="0 0 104.625 104.62"><g data-name="Сгруппировать 5136"><path data-name="Контур 17569" d="M18.156 55.019C57.222 15.948 104.624 0 104.624 0S88.667 47.4 49.601 86.464z" fill="#fff"/><path data-name="Контур 17570" d="M69.477 86.106a2.837 2.837 0 01-2.008-.833l-9.8-9.8a2.84 2.84 0 114.016-4.016l7.709 7.714C82.403 63.919 81.1 40.09 81.085 39.845a2.852 2.852 0 012.64-3.022 2.78 2.78 0 013.027 2.62c.015.284 1.636 28.937-15.272 45.83a2.829 2.829 0 01-2.003.833zM31.165 47.789a2.838 2.838 0 01-2.008-.833l-9.815-9.814a2.835 2.835 0 010-4.016c16.58-16.585 44.611-15.35 45.791-15.287a2.84 2.84 0 012.684 2.983 2.981 2.981 0 01-2.978 2.694c-1.043-.078-24.387-1.1-39.394 11.7l7.729 7.719a2.843 2.843 0 01-2.008 4.854z" fill="#fff"/><path data-name="Контур 17571" d="M67.769 27.927a6.321 6.321 0 110 8.939 6.319 6.319 0 010-8.939z" fill="#5b73ee"/><path data-name="Контур 17572" d="M46.913 45.796a8.423 8.423 0 110 11.917 8.43 8.43 0 010-11.917z" fill="#5b73ee"/><path data-name="Контур 17573" d="M32.463 79.063c-.078 2.65-1.543 5.814-4.976 9.247-5.971 5.966-12.485 7.484-15.566 4.408s-1.577-9.61 4.384-15.57c3.443-3.439 6.6-4.9 9.267-4.981-4.467-1.553-10.168-.064-16.261 6.024C1.092 86.41.005 104.62.005 104.62s18.22-1.082 26.439-9.3c6.088-6.089 7.573-11.786 6.019-16.257z" fill="#fff"/></g></svg>