<svg xmlns="http://www.w3.org/2000/svg" xmlns:xlink="http://www.w3.org/1999/xlink" width="618.672" height="546.167" viewBox="0 0 618.672 546.167">
  <defs>
    <clipPath id="clip-path">
      <rect id="Прямоугольник_7" data-name="Прямоугольник 7" width="313.339" height="533.998"/>
    </clipPath>
    <linearGradient id="linear-gradient" x1="46.645" y1="0.5" x2="47.644" y2="0.5" gradientUnits="objectBoundingBox">
      <stop offset="0" stop-color="#fff"/>
      <stop offset="1" stop-color="#222221"/>
    </linearGradient>
    <linearGradient id="linear-gradient-2" x1="0.484" y1="0.59" x2="1.158" y2="0.355" gradientUnits="objectBoundingBox">
      <stop offset="0" stop-color="#222221"/>
      <stop offset="1" stop-color="#fff"/>
    </linearGradient>
    <clipPath id="clip-path-6">
      <rect id="Прямоугольник_20" data-name="Прямоугольник 20" width="437.25" height="533.998"/>
    </clipPath>
    <linearGradient id="linear-gradient-3" x1="0.001" y1="0.5" x2="1" y2="0.5" xlink:href="#linear-gradient-2"/>
    <linearGradient id="linear-gradient-4" x1="0" y1="0.5" x2="1" y2="0.5" xlink:href="#linear-gradient"/>
  </defs>
  <g id="Сгруппировать_4956" data-name="Сгруппировать 4956" transform="translate(607.58 168.169) rotate(103)" opacity="0.06">
    <g id="Сгруппировать_1" data-name="Сгруппировать 1" transform="translate(12.646 0)" clip-path="url(#clip-path)">
      <path id="Контур_27" data-name="Контур 27" d="M32.146,0C49.9,0,64.293,36.91,64.293,82.442S49.9,164.883,32.146,164.883,0,127.973,0,82.442,14.392,0,32.146,0Z" transform="translate(151.627 346.802)" fill="#f2f2f2"/>
    </g>
    <g id="Сгруппировать_2" data-name="Сгруппировать 2" transform="translate(12.646 0)" clip-path="url(#clip-path)">
      <ellipse id="Эллипс_2" data-name="Эллипс 2" cx="19.048" cy="48.864" rx="19.048" ry="48.864" transform="translate(239.613 30.654)" fill="#f2f2f2"/>
    </g>
    <g id="Сгруппировать_3" data-name="Сгруппировать 3" transform="translate(12.646 0)" clip-path="url(#clip-path)">
      <path id="Контур_1" data-name="Контур 1" d="M0,196.925H10.02V0H0Z" transform="translate(295.008 -0.721)" opacity="0.3" fill="url(#linear-gradient)"/>
    </g>
    <g id="Сгруппировать_4" data-name="Сгруппировать 4" transform="translate(12.646 0)" clip-path="url(#clip-path)">
      <path id="Контур_2" data-name="Контур 2" d="M99.44,0c.47,17.69.626,57.542-.287,75.232-.861,16.488-2.714,32.71-6.08,47-3.705,15.754-9.054,28.371-15.108,38.05C71,171.358,63.249,180.17,55.265,185.043c-7.1,4.339-14.482,5.34-21.709,2.87-7.306-2.537-14.351-8.611-20.927-16.956A145.52,145.52,0,0,1,0,151.466c.391,1.8.809,3.6,1.252,5.34C3,163.949,5.01,170.691,7.2,176.966a148.577,148.577,0,0,0,7.228,17.156c5.192,10.347,11.063,18.424,17.3,23.564,6.236,5.207,12.864,7.677,19.439,7.143,6.575-.6,13.125-4.139,19.178-10.347,6.08-6.275,11.82-15.153,16.726-26.435A205.92,205.92,0,0,0,99.257,148.6c3.131-14.819,5.74-30.84,6.236-47.663C106.563,65.286,103.2.467,103.2.467Z" transform="translate(194.211 268.366)" opacity="0.12" fill="url(#linear-gradient-2)"/>
    </g>
    <g id="Сгруппировать_15" data-name="Сгруппировать 15" transform="translate(-49.309 0)" clip-path="url(#clip-path-6)">
      <path id="Контур_18" data-name="Контур 18" d="M290.773,469.083V0h-77.7V468.615H146.583l-3,.067-3.071.067-1.535.067-1.6.067A144.174,144.174,0,0,0,112.4,472.42a153.006,153.006,0,0,0-24.032,7.81c-1.936.868-3.872,1.669-5.741,2.6l-5.607,2.87-5.474,3.137c-1.8,1.068-3.6,2.2-5.34,3.338A147.706,147.706,0,0,0,29.5,526.425a150.9,150.9,0,0,0-13.418,21.361,145.231,145.231,0,0,0-14.886,48.13,144.337,144.337,0,0,0,2.27,50.2,146.846,146.846,0,0,0,7.543,24.165A149.02,149.02,0,0,0,22.687,692.71a145.816,145.816,0,0,0,78.236,60.613,145.125,145.125,0,0,0,141.453-30.307A147.623,147.623,0,0,0,273.416,683.5a144.417,144.417,0,0,0,15.821-47.863c.267-2.069.6-4.206.8-6.275l.534-6.275q.1-3.2.2-6.408V546.985h41.721v-77.9H290.773Zm-77.7,123.762v22.83c-.067.935-.067,1.869-.067,2.87-.067,1-.2,1.936-.267,2.937s-.267,1.936-.4,2.937a74.541,74.541,0,0,1-2.67,11.415c-.334.935-.6,1.869-1,2.737-.4.935-.734,1.8-1.068,2.737-.4.868-.8,1.8-1.2,2.67s-.935,1.736-1.335,2.6a69.087,69.087,0,0,1-14.486,18.424,71.306,71.306,0,0,1-19.826,12.416,65.11,65.11,0,0,1-11.148,3.4,74.662,74.662,0,0,1-11.615,1.469,66.9,66.9,0,0,1-43.791-14.018A68.48,68.48,0,0,1,88.44,650.922a64.278,64.278,0,0,1-5.407-10.414,65.345,65.345,0,0,1-3.471-11.148,61.506,61.506,0,0,1-1.535-11.682,69.736,69.736,0,0,1,.534-11.815,66.659,66.659,0,0,1,6.876-22.3,72.907,72.907,0,0,1,6.208-9.947A68.363,68.363,0,0,1,108.8,557.6c.868-.534,1.669-1.068,2.47-1.535.868-.467,1.736-.935,2.537-1.469.868-.4,1.736-.868,2.6-1.335.868-.4,1.8-.8,2.67-1.2a65.087,65.087,0,0,1,11.081-3.6,67.653,67.653,0,0,1,11.615-1.669l.734-.067H213.2v46.127Z" transform="translate(103.919 -272.011)" fill="#fff"/>
      <g id="Сгруппировать_14" data-name="Сгруппировать 14" transform="translate(103.919 -272.011)">
        <g id="Сгруппировать_12" data-name="Сгруппировать 12" transform="translate(0 0)">
          <path id="Контур_19" data-name="Контур 19" d="M290.706,0H212.937V615.675c-.067.935-.067,1.869-.067,2.87-.067,1-.2,1.936-.267,2.937s-.267,1.936-.4,2.937a74.566,74.566,0,0,1-2.67,11.415c-.334.935-.6,1.869-1,2.737-.4.935-.734,1.8-1.068,2.737-.4.868-.8,1.8-1.2,2.67s-.935,1.736-1.335,2.6a69.09,69.09,0,0,1-14.486,18.424,71.308,71.308,0,0,1-19.826,12.416,65.11,65.11,0,0,1-11.148,3.4,74.662,74.662,0,0,1-11.615,1.469,66.9,66.9,0,0,1-43.791-14.018,68.481,68.481,0,0,1-15.754-17.356A64.278,64.278,0,0,1,82.9,640.508a65.341,65.341,0,0,1-3.471-11.148,61.505,61.505,0,0,1-1.535-11.682,69.736,69.736,0,0,1,.534-11.815,66.655,66.655,0,0,1,6.876-22.3,72.892,72.892,0,0,1,6.208-9.947A68.359,68.359,0,0,1,108.667,557.6c.868-.534,1.669-1.068,2.47-1.535.868-.467,1.736-.935,2.537-1.469.868-.4,1.736-.868,2.6-1.335.868-.4,1.8-.8,2.67-1.2a65.093,65.093,0,0,1,11.081-3.6,67.65,67.65,0,0,1,11.615-1.669l.734-.067h71.094v-78.1H146.583l-3,.067-3.071.067-1.535.067-1.6.067A144.174,144.174,0,0,0,112.4,472.42a153.006,153.006,0,0,0-24.032,7.81c-1.936.868-3.872,1.669-5.741,2.6l-5.607,2.87-5.474,3.137c-1.8,1.068-3.6,2.2-5.34,3.338A147.7,147.7,0,0,0,29.5,526.425a150.911,150.911,0,0,0-13.418,21.361,145.233,145.233,0,0,0-14.886,48.13,144.339,144.339,0,0,0,2.27,50.2,146.851,146.851,0,0,0,7.543,24.165A149.016,149.016,0,0,0,22.687,692.71a145.816,145.816,0,0,0,78.236,60.613,145.125,145.125,0,0,0,141.452-30.307A147.621,147.621,0,0,0,273.416,683.5a144.418,144.418,0,0,0,15.821-47.863c.267-2.069.6-4.206.8-6.275l.534-6.275q.1-3.2.2-6.408V593.112Z" transform="translate(0.067 0)" fill="none"/>
          <path id="Контур_20" data-name="Контур 20" d="M284.164,0h6.609V616.677q-.1,3.2-.2,6.409l-.534,6.275c-.2,2.069-.534,4.205-.8,6.275A144.422,144.422,0,0,1,273.416,683.5a148.675,148.675,0,0,1-31.041,39.518,147.1,147.1,0,0,1-42.589,26.635,144.873,144.873,0,0,1-49.131,10.48,144.223,144.223,0,0,1-94.19-30.306,144.678,144.678,0,0,1-53-83.71,144.341,144.341,0,0,1-2.27-50.2,145.235,145.235,0,0,1,14.886-48.13A147.209,147.209,0,0,1,29.5,526.425,147.7,147.7,0,0,1,66.211,492.18c1.8-1.135,3.538-2.27,5.34-3.338l5.474-3.137,5.607-2.871c1.869-.935,3.8-1.736,5.741-2.6a144.315,144.315,0,0,1,24.032-7.81,137.178,137.178,0,0,1,24.966-3.538l1.6-.067,1.535-.067,3.071-.067,3-.067h66.888v6.609H146.583l-2.87.067-2.937.067-1.469.067-1.469.067a131.448,131.448,0,0,0-23.831,3.4,139.036,139.036,0,0,0-22.9,7.476c-1.8.8-3.672,1.6-5.474,2.47l-5.407,2.737-5.274,2.937c-1.736,1-3.4,2.136-5.14,3.2A140.87,140.87,0,0,0,34.7,530.363,139.287,139.287,0,0,0,7.667,596.717a137.851,137.851,0,0,0,2.2,47.93,137.574,137.574,0,0,0,7.209,23.03,135.29,135.29,0,0,0,11.148,21.361,139.06,139.06,0,0,0,74.7,57.876,141.71,141.71,0,0,0,47.462,6.542,137.1,137.1,0,0,0,46.928-10.013A139.917,139.917,0,0,0,237.97,718.01a141.434,141.434,0,0,0,29.639-37.716,138.321,138.321,0,0,0,15.086-45.66c.267-2,.6-4.005.734-6.008l.467-6.008c.067-2,.134-4.072.2-6.141V593.046Z" transform="translate(0 0)"/>
          <path id="Контур_21" data-name="Контур 21" d="M255.729,0h6.609V616.476l-.2,5.741-.467,5.674c-.2,1.869-.467,3.8-.734,5.674a131.219,131.219,0,0,1-14.219,43.123A131.324,131.324,0,0,1,180.3,736.367a129.767,129.767,0,0,1-44.325,9.412,130.4,130.4,0,0,1-84.978-27.3,130.652,130.652,0,0,1-47.863-75.5,129.033,129.033,0,0,1-3-22.563,135.669,135.669,0,0,1,.935-22.7,130.238,130.238,0,0,1,13.418-43.39,137.371,137.371,0,0,1,12.083-19.292,131.8,131.8,0,0,1,33.11-30.907c1.6-1,3.2-2.069,4.806-3l4.94-2.8,5.073-2.537c1.736-.8,3.471-1.535,5.207-2.336a130.036,130.036,0,0,1,21.628-7.076,128.641,128.641,0,0,1,22.5-3.2l1.4-.067h1.4l2.8-.067,2.737-.067h67.021v6.609H132.233l-2.6.067-2.67.067h-1.335l-1.335.067a115.239,115.239,0,0,0-21.361,3.071,131.951,131.951,0,0,0-20.56,6.675c-1.669.734-3.338,1.469-4.94,2.2l-4.806,2.4-4.74,2.67c-1.535.935-3.071,1.936-4.606,2.87a130.976,130.976,0,0,0-17.022,13.284A124.757,124.757,0,0,0,7.536,598.519a129.216,129.216,0,0,0-.868,21.562,121.611,121.611,0,0,0,2.87,21.428A125.968,125.968,0,0,0,16.014,662.2a127.406,127.406,0,0,0,10.013,19.158A124.758,124.758,0,0,0,93.048,733.3a128.117,128.117,0,0,0,42.589,5.874,123.209,123.209,0,0,0,42.055-8.945,125.017,125.017,0,0,0,76.634-97.662c.2-1.8.534-3.6.668-5.34l.467-5.407.2-5.474V0Z" transform="translate(14.216 0)"/>
          <path id="Контур_22" data-name="Контур 22" d="M227.2,0h6.609V616.276l-.2,5.14-.4,5.073c-.134,1.669-.4,3.338-.668,5.073a117.038,117.038,0,0,1-37.649,70.225,119.305,119.305,0,0,1-34.245,21.428,116.664,116.664,0,0,1-39.519,8.411,119.439,119.439,0,0,1-39.986-5.474,117.1,117.1,0,0,1-62.883-48.8,121.664,121.664,0,0,1-9.412-18.024,115.039,115.039,0,0,1-6.075-19.425A113.454,113.454,0,0,1,.1,619.747a121.509,121.509,0,0,1,.868-20.293,116.919,116.919,0,0,1,36.381-70.893A115.317,115.317,0,0,1,53.3,516.078c1.4-.868,2.87-1.8,4.339-2.67l4.406-2.47,4.539-2.27c1.535-.734,3.071-1.4,4.606-2.069a114.258,114.258,0,0,1,19.292-6.275,112.993,112.993,0,0,1,20.093-2.87l1.268-.067h1.268l2.537-.067,2.47-.067h66.955v6.609H118.054l-2.4.067-2.4.067h-1.2l-1.2.067a114.727,114.727,0,0,0-18.958,2.67,115.46,115.46,0,0,0-18.157,5.941c-1.469.668-2.937,1.268-4.339,1.936l-4.272,2.136-4.139,2.336c-1.4.8-2.737,1.669-4.072,2.537a112.008,112.008,0,0,0-15.086,11.815A108.184,108.184,0,0,0,29,547.653a104.742,104.742,0,0,0-10.147,16.221A109.244,109.244,0,0,0,7.576,600.322a114.757,114.757,0,0,0-.8,19.159,107.685,107.685,0,0,0,2.537,19.025A109.68,109.68,0,0,0,15.052,656.8a107.809,107.809,0,0,0,8.878,16.956,110.075,110.075,0,0,0,97.128,51.267,109.661,109.661,0,0,0,69.558-28.17,112.806,112.806,0,0,0,23.564-29.973,108.832,108.832,0,0,0,11.949-36.248c.2-1.6.467-3.138.6-4.74l.4-4.806.133-4.806c.067-.8,0-1.6,0-2.336V0Z" transform="translate(28.529)"/>
          <path id="Контур_23" data-name="Контур 23" d="M198.829,0h6.609V616.076l-.133,4.473-.4,4.472c-.133,1.469-.4,2.937-.534,4.406a101.835,101.835,0,0,1-11.148,33.711,104.961,104.961,0,0,1-21.962,27.97,102.734,102.734,0,0,1-99.931,21.428A102.63,102.63,0,0,1,16.056,669.68a108.01,108.01,0,0,1-8.278-15.821,102.665,102.665,0,0,1-5.34-17.022,103.559,103.559,0,0,1-1.6-35.513,102.272,102.272,0,0,1,10.48-33.911A104.028,104.028,0,0,1,20.8,552.326a105.1,105.1,0,0,1,25.967-24.232c1.268-.8,2.47-1.6,3.805-2.336l3.872-2.2,4.005-2c1.335-.668,2.737-1.2,4.072-1.8a108.615,108.615,0,0,1,16.889-5.541,104.8,104.8,0,0,1,17.623-2.537l1.135-.067H99.3l2.2-.067,2.27-.067h67.021v6.609H103.7l-2.136.067-2.136.067H98.364l-1.068.067a91.69,91.69,0,0,0-16.488,2.336,101.754,101.754,0,0,0-15.821,5.14c-1.268.6-2.537,1.135-3.805,1.736l-3.738,1.869-3.471,2c-1.2.734-2.336,1.469-3.538,2.2a98.084,98.084,0,0,0-13.151,10.28A103.462,103.462,0,0,0,26.069,556.2a100.552,100.552,0,0,0-8.878,14.152,94.627,94.627,0,0,0-9.813,31.775,107.45,107.45,0,0,0-.734,16.689,98.682,98.682,0,0,0,2.2,16.555,95.385,95.385,0,0,0,5.007,15.887A97.8,97.8,0,0,0,21.6,666.075a96.173,96.173,0,0,0,51.735,40.053,98.131,98.131,0,0,0,32.91,4.539,95.282,95.282,0,0,0,60.613-24.5A99.066,99.066,0,0,0,187.414,660a96.106,96.106,0,0,0,10.414-31.575c.2-1.4.4-2.737.534-4.139l.334-4.139.134-4.139V0Z" transform="translate(42.679 0)"/>
          <path id="Контур_24" data-name="Контур 24" d="M170.364,0h6.609V615.942l-.133,3.8-.334,3.872c-.133,1.268-.334,2.537-.467,3.8a87.58,87.58,0,0,1-9.613,29.038,88.543,88.543,0,0,1-44.859,40.32,88.094,88.094,0,0,1-29.839,6.342A87.733,87.733,0,0,1,34.386,684.7a90,90,0,0,1-20.627-22.63,87.827,87.827,0,0,1-7.076-13.618,92.909,92.909,0,0,1-4.606-14.619,83.394,83.394,0,0,1-2-15.22,91.754,91.754,0,0,1,.668-15.42,88.118,88.118,0,0,1,9.012-29.238A90.455,90.455,0,0,1,17.9,560.937a91.017,91.017,0,0,1,22.43-20.894c1.068-.668,2.136-1.4,3.271-2l3.338-1.869,3.4-1.736c1.135-.534,2.336-1.068,3.471-1.6a88.164,88.164,0,0,1,14.552-4.739,83.679,83.679,0,0,1,15.153-2.136l.935-.067h2.937l2-.067H156.48v6.609H89.325l-1.869.067H84.719l-.868.067a76.293,76.293,0,0,0-14.018,2,81.6,81.6,0,0,0-13.484,4.406c-1.068.467-2.2.935-3.2,1.469l-3.2,1.6-3.071,1.736c-1,.6-2,1.268-3,1.869a88.707,88.707,0,0,0-11.215,8.745A79.648,79.648,0,0,0,23.1,564.942a77.87,77.87,0,0,0-7.543,12.083A79.659,79.659,0,0,0,7.217,604.06a84.993,84.993,0,0,0-.6,14.285,83.069,83.069,0,0,0,1.869,14.085,88.374,88.374,0,0,0,4.206,13.551A75.684,75.684,0,0,0,19.3,658.6a80.511,80.511,0,0,0,19.092,20.961,83.915,83.915,0,0,0,24.966,13.217,82.517,82.517,0,0,0,55.673-2.07,83.574,83.574,0,0,0,24.032-15.02,82.286,82.286,0,0,0,26.368-49.131c.134-1.2.334-2.336.467-3.538l.334-3.538.134-3.471V0Z" transform="translate(56.925 0)"/>
          <path id="Контур_25" data-name="Контур 25" d="M141.768,0h6.609V615.742l-.133,3.137c-.133,1.068-.2,2.136-.267,3.2s-.267,2.136-.4,3.2a75.278,75.278,0,0,1-8.011,24.365A74.675,74.675,0,0,1,101.915,683.5a70.586,70.586,0,0,1-12.283,3.738,82.207,82.207,0,0,1-12.75,1.6,75.859,75.859,0,0,1-25.433-3.471,76.685,76.685,0,0,1-22.63-11.949A74.552,74.552,0,0,1,11.53,654.393a68.681,68.681,0,0,1-5.941-11.415A72.592,72.592,0,0,1,1.784,630.7,74.925,74.925,0,0,1,.048,617.878a83.74,83.74,0,0,1,.534-12.95,73.6,73.6,0,0,1,7.543-24.5,80.84,80.84,0,0,1,6.809-10.948,78.321,78.321,0,0,1,8.678-9.546,72.878,72.878,0,0,1,10.147-7.944c.935-.534,1.8-1.2,2.737-1.736l2.8-1.6c.935-.467,1.936-.935,2.87-1.469.935-.467,1.936-.868,2.937-1.335a76.918,76.918,0,0,1,12.216-4.005,67.455,67.455,0,0,1,12.75-1.8l.8-.067h2.537l1.736-.067H142.3v6.609H71.208l-.734.067a61.686,61.686,0,0,0-11.615,1.669,65.093,65.093,0,0,0-11.081,3.6c-.868.4-1.8.8-2.67,1.2-.868.467-1.736.868-2.6,1.335s-1.669,1-2.537,1.469S38.3,556.931,37.5,557.4a69.572,69.572,0,0,0-9.279,7.276,65.229,65.229,0,0,0-7.877,8.745A67.966,67.966,0,0,0,7.258,605.662a67.22,67.22,0,0,0,1,23.5,71.894,71.894,0,0,0,3.471,11.148,76.986,76.986,0,0,0,5.407,10.414,67.46,67.46,0,0,0,36.381,28.237A67.619,67.619,0,0,0,88.3,680.627a65.1,65.1,0,0,0,11.148-3.4,68.347,68.347,0,0,0,19.826-12.416,70.453,70.453,0,0,0,14.486-18.424c.4-.868.935-1.736,1.335-2.6s.8-1.8,1.2-2.67c.334-.935.734-1.8,1.068-2.737s.6-1.869,1-2.737a67.436,67.436,0,0,0,2.67-11.415c.134-1,.267-1.936.4-2.937.067-1,.134-1.936.267-2.937,0-.935.067-1.869.067-2.871V0Z" transform="translate(71.303 0)"/>
        </g>
        <g id="Сгруппировать_13" data-name="Сгруппировать 13" transform="translate(290.572 469.083)">
          <rect id="Прямоугольник_13" data-name="Прямоугольник 13" width="41.922" height="77.969" fill="none"/>
          <rect id="Прямоугольник_14" data-name="Прямоугольник 14" width="41.922" height="6.609" transform="translate(0 0)"/>
          <rect id="Прямоугольник_15" data-name="Прямоугольник 15" width="41.922" height="6.609" transform="translate(0 14.219)"/>
          <rect id="Прямоугольник_16" data-name="Прямоугольник 16" width="41.922" height="6.609" transform="translate(0 28.504)"/>
          <rect id="Прямоугольник_17" data-name="Прямоугольник 17" width="41.922" height="6.609" transform="translate(0 42.79)"/>
          <rect id="Прямоугольник_18" data-name="Прямоугольник 18" width="41.922" height="6.609" transform="translate(0 57.008)"/>
          <rect id="Прямоугольник_19" data-name="Прямоугольник 19" width="41.922" height="6.609" transform="translate(0 71.294)"/>
        </g>
      </g>
    </g>
    <g id="Сгруппировать_16" data-name="Сгруппировать 16" transform="translate(12.646 0)" clip-path="url(#clip-path)">
      <rect id="Прямоугольник_21" data-name="Прямоугольник 21" width="12.759" height="77.969" transform="translate(296.704 197.072)" opacity="0" fill="url(#linear-gradient-3)"/>
    </g>
    <g id="Сгруппировать_17" data-name="Сгруппировать 17" transform="translate(12.646 0)" clip-path="url(#clip-path)">
      <rect id="Прямоугольник_23" data-name="Прямоугольник 23" width="18.448" height="71.294" transform="translate(248.041 203.214)" opacity="0.25" fill="url(#linear-gradient-4)"/>
    </g>
  </g>
</svg>
