<svg xmlns="http://www.w3.org/2000/svg" width="136.338" height="137.938" viewBox="0 0 136.338 137.938">
  <path id="Icon_awesome-binoculars" data-name="Icon awesome-binoculars" d="M84.363,3.245A3.244,3.244,0,0,0,81.118,0H68.139a3.244,3.244,0,0,0-3.245,3.245v9.734H84.363Zm-71.4,22.711C12.452,44.988.7,49.121,0,75.44v8.923a6.49,6.49,0,0,0,6.489,6.489H25.958a6.49,6.49,0,0,0,6.489-6.489V51.916h6.489V19.468h-19.5A6.552,6.552,0,0,0,12.961,25.956Zm77.91,0A6.552,6.552,0,0,0,84.4,19.468h-19.5V51.916h6.489V84.363a6.49,6.49,0,0,0,6.489,6.489H97.342a6.49,6.49,0,0,0,6.489-6.489V75.44c-.7-26.319-12.452-30.452-12.961-49.484ZM35.692,0H22.713a3.244,3.244,0,0,0-3.245,3.245v9.734H38.937V3.245A3.244,3.244,0,0,0,35.692,0Zm9.734,51.916H58.405V19.468H45.426Z" transform="translate(66.741 137.938) rotate(-130)" fill="#fff"/>
</svg>
