<svg xmlns="http://www.w3.org/2000/svg" xmlns:xlink="http://www.w3.org/1999/xlink" width="217" height="117" viewBox="0 0 217 117">
  <defs>
    <clipPath id="clip-path">
      <rect width="217" height="117" fill="none"/>
    </clipPath>
  </defs>
  <g id="Повторяющаяся_сетка_56" data-name="Повторяющаяся сетка 56" opacity="0.32" clip-path="url(#clip-path)">
    <g transform="translate(-109 -1533)">
      <circle id="Эллипс_959" data-name="Эллипс 959" cx="3.5" cy="3.5" r="3.5" transform="translate(109 1533)" fill="#bdbdbd"/>
    </g>
    <g transform="translate(-88 -1533)">
      <circle id="Эллипс_959-2" data-name="Эллипс 959" cx="3.5" cy="3.5" r="3.5" transform="translate(109 1533)" fill="#bdbdbd"/>
    </g>
    <g transform="translate(-67 -1533)">
      <circle id="Эллипс_959-3" data-name="Эллипс 959" cx="3.5" cy="3.5" r="3.5" transform="translate(109 1533)" fill="#bdbdbd"/>
    </g>
    <g transform="translate(-46 -1533)">
      <circle id="Эллипс_959-4" data-name="Эллипс 959" cx="3.5" cy="3.5" r="3.5" transform="translate(109 1533)" fill="#bdbdbd"/>
    </g>
    <g transform="translate(-25 -1533)">
      <circle id="Эллипс_959-5" data-name="Эллипс 959" cx="3.5" cy="3.5" r="3.5" transform="translate(109 1533)" fill="#bdbdbd"/>
    </g>
    <g transform="translate(-4 -1533)">
      <circle id="Эллипс_959-6" data-name="Эллипс 959" cx="3.5" cy="3.5" r="3.5" transform="translate(109 1533)" fill="#bdbdbd"/>
    </g>
    <g transform="translate(17 -1533)">
      <circle id="Эллипс_959-7" data-name="Эллипс 959" cx="3.5" cy="3.5" r="3.5" transform="translate(109 1533)" fill="#bdbdbd"/>
    </g>
    <g transform="translate(38 -1533)">
      <circle id="Эллипс_959-8" data-name="Эллипс 959" cx="3.5" cy="3.5" r="3.5" transform="translate(109 1533)" fill="#bdbdbd"/>
    </g>
    <g transform="translate(59 -1533)">
      <circle id="Эллипс_959-9" data-name="Эллипс 959" cx="3.5" cy="3.5" r="3.5" transform="translate(109 1533)" fill="#bdbdbd"/>
    </g>
    <g transform="translate(80 -1533)">
      <circle id="Эллипс_959-10" data-name="Эллипс 959" cx="3.5" cy="3.5" r="3.5" transform="translate(109 1533)" fill="#bdbdbd"/>
    </g>
    <g transform="translate(101 -1533)">
      <circle id="Эллипс_959-11" data-name="Эллипс 959" cx="3.5" cy="3.5" r="3.5" transform="translate(109 1533)" fill="#bdbdbd"/>
    </g>
    <g transform="translate(-109 -1512)">
      <circle id="Эллипс_959-12" data-name="Эллипс 959" cx="3.5" cy="3.5" r="3.5" transform="translate(109 1533)" fill="#bdbdbd"/>
    </g>
    <g transform="translate(-88 -1512)">
      <circle id="Эллипс_959-13" data-name="Эллипс 959" cx="3.5" cy="3.5" r="3.5" transform="translate(109 1533)" fill="#bdbdbd"/>
    </g>
    <g transform="translate(-67 -1512)">
      <circle id="Эллипс_959-14" data-name="Эллипс 959" cx="3.5" cy="3.5" r="3.5" transform="translate(109 1533)" fill="#bdbdbd"/>
    </g>
    <g transform="translate(-46 -1512)">
      <circle id="Эллипс_959-15" data-name="Эллипс 959" cx="3.5" cy="3.5" r="3.5" transform="translate(109 1533)" fill="#bdbdbd"/>
    </g>
    <g transform="translate(-25 -1512)">
      <circle id="Эллипс_959-16" data-name="Эллипс 959" cx="3.5" cy="3.5" r="3.5" transform="translate(109 1533)" fill="#bdbdbd"/>
    </g>
    <g transform="translate(-4 -1512)">
      <circle id="Эллипс_959-17" data-name="Эллипс 959" cx="3.5" cy="3.5" r="3.5" transform="translate(109 1533)" fill="#bdbdbd"/>
    </g>
    <g transform="translate(17 -1512)">
      <circle id="Эллипс_959-18" data-name="Эллипс 959" cx="3.5" cy="3.5" r="3.5" transform="translate(109 1533)" fill="#bdbdbd"/>
    </g>
    <g transform="translate(38 -1512)">
      <circle id="Эллипс_959-19" data-name="Эллипс 959" cx="3.5" cy="3.5" r="3.5" transform="translate(109 1533)" fill="#bdbdbd"/>
    </g>
    <g transform="translate(59 -1512)">
      <circle id="Эллипс_959-20" data-name="Эллипс 959" cx="3.5" cy="3.5" r="3.5" transform="translate(109 1533)" fill="#bdbdbd"/>
    </g>
    <g transform="translate(80 -1512)">
      <circle id="Эллипс_959-21" data-name="Эллипс 959" cx="3.5" cy="3.5" r="3.5" transform="translate(109 1533)" fill="#bdbdbd"/>
    </g>
    <g transform="translate(101 -1512)">
      <circle id="Эллипс_959-22" data-name="Эллипс 959" cx="3.5" cy="3.5" r="3.5" transform="translate(109 1533)" fill="#bdbdbd"/>
    </g>
    <g transform="translate(-109 -1491)">
      <circle id="Эллипс_959-23" data-name="Эллипс 959" cx="3.5" cy="3.5" r="3.5" transform="translate(109 1533)" fill="#bdbdbd"/>
    </g>
    <g transform="translate(-88 -1491)">
      <circle id="Эллипс_959-24" data-name="Эллипс 959" cx="3.5" cy="3.5" r="3.5" transform="translate(109 1533)" fill="#bdbdbd"/>
    </g>
    <g transform="translate(-67 -1491)">
      <circle id="Эллипс_959-25" data-name="Эллипс 959" cx="3.5" cy="3.5" r="3.5" transform="translate(109 1533)" fill="#bdbdbd"/>
    </g>
    <g transform="translate(-46 -1491)">
      <circle id="Эллипс_959-26" data-name="Эллипс 959" cx="3.5" cy="3.5" r="3.5" transform="translate(109 1533)" fill="#bdbdbd"/>
    </g>
    <g transform="translate(-25 -1491)">
      <circle id="Эллипс_959-27" data-name="Эллипс 959" cx="3.5" cy="3.5" r="3.5" transform="translate(109 1533)" fill="#bdbdbd"/>
    </g>
    <g transform="translate(-4 -1491)">
      <circle id="Эллипс_959-28" data-name="Эллипс 959" cx="3.5" cy="3.5" r="3.5" transform="translate(109 1533)" fill="#bdbdbd"/>
    </g>
    <g transform="translate(17 -1491)">
      <circle id="Эллипс_959-29" data-name="Эллипс 959" cx="3.5" cy="3.5" r="3.5" transform="translate(109 1533)" fill="#bdbdbd"/>
    </g>
    <g transform="translate(38 -1491)">
      <circle id="Эллипс_959-30" data-name="Эллипс 959" cx="3.5" cy="3.5" r="3.5" transform="translate(109 1533)" fill="#bdbdbd"/>
    </g>
    <g transform="translate(59 -1491)">
      <circle id="Эллипс_959-31" data-name="Эллипс 959" cx="3.5" cy="3.5" r="3.5" transform="translate(109 1533)" fill="#bdbdbd"/>
    </g>
    <g transform="translate(80 -1491)">
      <circle id="Эллипс_959-32" data-name="Эллипс 959" cx="3.5" cy="3.5" r="3.5" transform="translate(109 1533)" fill="#bdbdbd"/>
    </g>
    <g transform="translate(101 -1491)">
      <circle id="Эллипс_959-33" data-name="Эллипс 959" cx="3.5" cy="3.5" r="3.5" transform="translate(109 1533)" fill="#bdbdbd"/>
    </g>
    <g transform="translate(-109 -1470)">
      <circle id="Эллипс_959-34" data-name="Эллипс 959" cx="3.5" cy="3.5" r="3.5" transform="translate(109 1533)" fill="#bdbdbd"/>
    </g>
    <g transform="translate(-88 -1470)">
      <circle id="Эллипс_959-35" data-name="Эллипс 959" cx="3.5" cy="3.5" r="3.5" transform="translate(109 1533)" fill="#bdbdbd"/>
    </g>
    <g transform="translate(-67 -1470)">
      <circle id="Эллипс_959-36" data-name="Эллипс 959" cx="3.5" cy="3.5" r="3.5" transform="translate(109 1533)" fill="#bdbdbd"/>
    </g>
    <g transform="translate(-46 -1470)">
      <circle id="Эллипс_959-37" data-name="Эллипс 959" cx="3.5" cy="3.5" r="3.5" transform="translate(109 1533)" fill="#bdbdbd"/>
    </g>
    <g transform="translate(-25 -1470)">
      <circle id="Эллипс_959-38" data-name="Эллипс 959" cx="3.5" cy="3.5" r="3.5" transform="translate(109 1533)" fill="#bdbdbd"/>
    </g>
    <g transform="translate(-4 -1470)">
      <circle id="Эллипс_959-39" data-name="Эллипс 959" cx="3.5" cy="3.5" r="3.5" transform="translate(109 1533)" fill="#bdbdbd"/>
    </g>
    <g transform="translate(17 -1470)">
      <circle id="Эллипс_959-40" data-name="Эллипс 959" cx="3.5" cy="3.5" r="3.5" transform="translate(109 1533)" fill="#bdbdbd"/>
    </g>
    <g transform="translate(38 -1470)">
      <circle id="Эллипс_959-41" data-name="Эллипс 959" cx="3.5" cy="3.5" r="3.5" transform="translate(109 1533)" fill="#bdbdbd"/>
    </g>
    <g transform="translate(59 -1470)">
      <circle id="Эллипс_959-42" data-name="Эллипс 959" cx="3.5" cy="3.5" r="3.5" transform="translate(109 1533)" fill="#bdbdbd"/>
    </g>
    <g transform="translate(80 -1470)">
      <circle id="Эллипс_959-43" data-name="Эллипс 959" cx="3.5" cy="3.5" r="3.5" transform="translate(109 1533)" fill="#bdbdbd"/>
    </g>
    <g transform="translate(101 -1470)">
      <circle id="Эллипс_959-44" data-name="Эллипс 959" cx="3.5" cy="3.5" r="3.5" transform="translate(109 1533)" fill="#bdbdbd"/>
    </g>
    <g transform="translate(-109 -1449)">
      <circle id="Эллипс_959-45" data-name="Эллипс 959" cx="3.5" cy="3.5" r="3.5" transform="translate(109 1533)" fill="#bdbdbd"/>
    </g>
    <g transform="translate(-88 -1449)">
      <circle id="Эллипс_959-46" data-name="Эллипс 959" cx="3.5" cy="3.5" r="3.5" transform="translate(109 1533)" fill="#bdbdbd"/>
    </g>
    <g transform="translate(-67 -1449)">
      <circle id="Эллипс_959-47" data-name="Эллипс 959" cx="3.5" cy="3.5" r="3.5" transform="translate(109 1533)" fill="#bdbdbd"/>
    </g>
    <g transform="translate(-46 -1449)">
      <circle id="Эллипс_959-48" data-name="Эллипс 959" cx="3.5" cy="3.5" r="3.5" transform="translate(109 1533)" fill="#bdbdbd"/>
    </g>
    <g transform="translate(-25 -1449)">
      <circle id="Эллипс_959-49" data-name="Эллипс 959" cx="3.5" cy="3.5" r="3.5" transform="translate(109 1533)" fill="#bdbdbd"/>
    </g>
    <g transform="translate(-4 -1449)">
      <circle id="Эллипс_959-50" data-name="Эллипс 959" cx="3.5" cy="3.5" r="3.5" transform="translate(109 1533)" fill="#bdbdbd"/>
    </g>
    <g transform="translate(17 -1449)">
      <circle id="Эллипс_959-51" data-name="Эллипс 959" cx="3.5" cy="3.5" r="3.5" transform="translate(109 1533)" fill="#bdbdbd"/>
    </g>
    <g transform="translate(38 -1449)">
      <circle id="Эллипс_959-52" data-name="Эллипс 959" cx="3.5" cy="3.5" r="3.5" transform="translate(109 1533)" fill="#bdbdbd"/>
    </g>
    <g transform="translate(59 -1449)">
      <circle id="Эллипс_959-53" data-name="Эллипс 959" cx="3.5" cy="3.5" r="3.5" transform="translate(109 1533)" fill="#bdbdbd"/>
    </g>
    <g transform="translate(80 -1449)">
      <circle id="Эллипс_959-54" data-name="Эллипс 959" cx="3.5" cy="3.5" r="3.5" transform="translate(109 1533)" fill="#bdbdbd"/>
    </g>
    <g transform="translate(101 -1449)">
      <circle id="Эллипс_959-55" data-name="Эллипс 959" cx="3.5" cy="3.5" r="3.5" transform="translate(109 1533)" fill="#bdbdbd"/>
    </g>
    <g transform="translate(-109 -1428)">
      <circle id="Эллипс_959-56" data-name="Эллипс 959" cx="3.5" cy="3.5" r="3.5" transform="translate(109 1533)" fill="#bdbdbd"/>
    </g>
    <g transform="translate(-88 -1428)">
      <circle id="Эллипс_959-57" data-name="Эллипс 959" cx="3.5" cy="3.5" r="3.5" transform="translate(109 1533)" fill="#bdbdbd"/>
    </g>
    <g transform="translate(-67 -1428)">
      <circle id="Эллипс_959-58" data-name="Эллипс 959" cx="3.5" cy="3.5" r="3.5" transform="translate(109 1533)" fill="#bdbdbd"/>
    </g>
    <g transform="translate(-46 -1428)">
      <circle id="Эллипс_959-59" data-name="Эллипс 959" cx="3.5" cy="3.5" r="3.5" transform="translate(109 1533)" fill="#bdbdbd"/>
    </g>
    <g transform="translate(-25 -1428)">
      <circle id="Эллипс_959-60" data-name="Эллипс 959" cx="3.5" cy="3.5" r="3.5" transform="translate(109 1533)" fill="#bdbdbd"/>
    </g>
    <g transform="translate(-4 -1428)">
      <circle id="Эллипс_959-61" data-name="Эллипс 959" cx="3.5" cy="3.5" r="3.5" transform="translate(109 1533)" fill="#bdbdbd"/>
    </g>
    <g transform="translate(17 -1428)">
      <circle id="Эллипс_959-62" data-name="Эллипс 959" cx="3.5" cy="3.5" r="3.5" transform="translate(109 1533)" fill="#bdbdbd"/>
    </g>
    <g transform="translate(38 -1428)">
      <circle id="Эллипс_959-63" data-name="Эллипс 959" cx="3.5" cy="3.5" r="3.5" transform="translate(109 1533)" fill="#bdbdbd"/>
    </g>
    <g transform="translate(59 -1428)">
      <circle id="Эллипс_959-64" data-name="Эллипс 959" cx="3.5" cy="3.5" r="3.5" transform="translate(109 1533)" fill="#bdbdbd"/>
    </g>
    <g transform="translate(80 -1428)">
      <circle id="Эллипс_959-65" data-name="Эллипс 959" cx="3.5" cy="3.5" r="3.5" transform="translate(109 1533)" fill="#bdbdbd"/>
    </g>
    <g transform="translate(101 -1428)">
      <circle id="Эллипс_959-66" data-name="Эллипс 959" cx="3.5" cy="3.5" r="3.5" transform="translate(109 1533)" fill="#bdbdbd"/>
    </g>
  </g>
</svg>
