<svg xmlns="http://www.w3.org/2000/svg" width="104.625" height="104.62" viewBox="0 0 104.625 104.62">
  <g id="Сгруппировать_5136" data-name="Сгруппировать 5136" transform="translate(0 0)">
    <path id="Контур_17569" data-name="Контур 17569" d="M389.844,413.942c39.066-39.071,86.468-55.019,86.468-55.019s-15.957,47.4-55.023,86.464Z" transform="translate(-371.688 -358.923)" fill="#fff"/>
    <path id="Контур_17570" data-name="Контур 17570" d="M440.885,430.864a2.837,2.837,0,0,1-2.008-.833l-9.8-9.8a2.84,2.84,0,1,1,4.016-4.016l7.709,7.714c13.009-15.252,11.706-39.081,11.691-39.326a2.852,2.852,0,0,1,2.64-3.022,2.78,2.78,0,0,1,3.027,2.62c.015.284,1.636,28.937-15.272,45.83A2.829,2.829,0,0,1,440.885,430.864Zm-38.312-38.317a2.838,2.838,0,0,1-2.008-.833L390.75,381.9a2.835,2.835,0,0,1,0-4.016c16.58-16.585,44.611-15.35,45.791-15.287a2.84,2.84,0,0,1,2.684,2.983,2.981,2.981,0,0,1-2.978,2.694c-1.043-.078-24.387-1.1-39.394,11.7l7.729,7.719a2.843,2.843,0,0,1-2.008,4.854Z" transform="translate(-371.408 -344.758)" fill="#fff"/>
    <path id="Контур_17571" data-name="Контур 17571" d="M401.447,366.1a6.321,6.321,0,1,1,0,8.939A6.319,6.319,0,0,1,401.447,366.1Z" transform="translate(-333.678 -338.173)" fill="#5b73ee"/>
    <path id="Контур_17572" data-name="Контур 17572" d="M397.68,370.236a8.423,8.423,0,1,1,0,11.917A8.43,8.43,0,0,1,397.68,370.236Z" transform="translate(-350.767 -324.44)" fill="#5b73ee"/>
    <path id="Контур_17573" data-name="Контур 17573" d="M418.6,381.008c-.078,2.65-1.543,5.814-4.976,9.247-5.971,5.966-12.485,7.484-15.566,4.408s-1.577-9.61,4.384-15.57c3.443-3.439,6.6-4.9,9.267-4.981-4.467-1.553-10.168-.064-16.261,6.024-8.219,8.219-9.306,26.429-9.306,26.429s18.22-1.082,26.439-9.3C418.669,391.176,420.154,385.479,418.6,381.008Z" transform="translate(-386.137 -301.945)" fill="#fff"/>
  </g>
</svg>
